<?xml version="1.0"?>
<svg xmlns="http://www.w3.org/2000/svg" height="512px" viewBox="0 0 512.00044 512" width="512px" class=""><g><path d="m383.464844 352.40625c0 8.28125-6.714844 15-15 15-8.28125 0-15-6.71875-15-15 0-8.285156 6.71875-15 15-15 8.285156 0 15 6.714844 15 15zm0 0" data-original="#000000" class="active-path" data-old_color="#000000" fill="#FFFFFF"/><path d="m431.664062 320.269531c0 8.285157-6.714843 15-15 15-8.28125 0-15-6.714843-15-15 0-8.285156 6.71875-15 15-15 8.285157 0 15 6.714844 15 15zm0 0" data-original="#000000" class="active-path" data-old_color="#000000" fill="#FFFFFF"/><path d="m431.664062 384.539062c0 8.28125-6.714843 15-15 15-8.28125 0-15-6.71875-15-15 0-8.285156 6.71875-15 15-15 8.285157 0 15 6.714844 15 15zm0 0" data-original="#000000" class="active-path" data-old_color="#000000" fill="#FFFFFF"/><path d="m335.265625 169.457031v-37.019531c0-26.597656-10.019531-44.652344-13.558594-51.691406-41.5625-83.140625-125.878906-80.7382815-142.089843-80.7382815-99.195313 0-179.617188 80.2539065-179.617188 179.6249995 0 31.261719 7.390625 62.558594 21.371094 90.507813l29.601562 59.207031c7.691406 15.382813 8.980469 33.5625 3.539063 49.882813l-37.675781 113.027343c-1.523438 4.574219-.757813 9.601563 2.0625 13.511719 2.820312 3.914063 7.347656 6.230469 12.167968 6.230469h144.601563c6.457031 0 12.1875-4.128906 14.230469-10.253906l12.648437-37.945313h45.871094c30.214843 0 57.382812-16.789062 70.894531-43.8125l14.371094-28.742187c2.324218-4.652344 2.078125-10.171875-.65625-14.597656-2.734375-4.421876-7.5625-7.113282-12.761719-7.113282h-48.199219c-9.332031 0-17.132812-7.542968-17.132812-17.132812 0-18.304688 14.894531-33.199219 33.199218-33.199219h48.199219c8.285157 0 15-6.714844 15-15v-17.132813h10.964844c20.53125 0 37.234375-16.703124 37.234375-37.25 0-10.230468-4.148438-20.246093-11.382812-27.480468zm27.03125 87.613281h-25.960937c-8.285157 0-15 6.714844-15 15v17.132813h-33.203126c-34.847656 0-63.199218 28.351563-63.199218 63.199219 0 25.914062 20.953125 47.132812 47.132812 47.132812h23.929688l-3.515625 7.035156c-8.398438 16.796876-25.285157 27.230469-44.0625 27.230469h-56.683594c-6.457031 0-12.1875 4.132813-14.230469 10.257813l-12.648437 37.941406h-112.976563l31.09375-93.28125c8.054688-24.160156 6.222656-50.011719-5.167968-72.789062l-29.605469-59.207032c-11.90625-23.804687-18.199219-50.464844-18.199219-77.097656 0-82.636719 66.859375-149.617188 149.617188-149.617188 9.492187 0 80.636718-5.097656 115.269531 64.179688 4.019531 8.003906 10.378906 19.855469 10.378906 38.25v39.074219c0 6.6875 2.605469 12.976562 7.335937 17.707031l54.335938 54.335938c5.152344 5.152343 2.132812 13.515624-4.640625 13.515624zm0 0" data-original="#000000" class="active-path" data-old_color="#000000" fill="#FFFFFF"/><path d="m479.242188 300.855469 25.707031-16.0625c7.023437-4.394531 9.160156-13.648438 4.769531-20.671875-4.390625-7.023438-13.644531-9.160156-20.667969-4.769532l-25.707031 16.066407c-7.027344 4.390625-9.164062 13.644531-4.773438 20.667969 3.296876 5.277343 12.097657 10.128906 20.671876 4.769531zm0 0" data-original="#000000" class="active-path" data-old_color="#000000" fill="#FFFFFF"/><path d="m504.949219 420.015625-25.707031-16.066406c-7.027344-4.390625-16.28125-2.253907-20.671876 4.769531-4.390624 7.027344-2.253906 16.28125 4.769532 20.671875l25.707031 16.066406c8.832031 5.519531 17.53125.25 20.671875-4.769531 4.390625-7.023438 2.253906-16.277344-4.769531-20.671875zm0 0" data-original="#000000" class="active-path" data-old_color="#000000" fill="#FFFFFF"/><path d="m471.292969 367.402344h25.707031c8.285156 0 15-6.714844 15-15 0-8.28125-6.714844-15-15-15h-25.707031c-8.285157 0-15 6.71875-15 15 0 8.285156 6.714843 15 15 15zm0 0" data-original="#000000" class="active-path" data-old_color="#000000" fill="#FFFFFF"/></g> </svg>
