<?xml version="1.0"?>
<svg xmlns="http://www.w3.org/2000/svg" xmlns:xlink="http://www.w3.org/1999/xlink" version="1.1" id="Layer_1" x="0px" y="0px" viewBox="0 0 512.005 512.005" style="enable-background:new 0 0 512.005 512.005;" xml:space="preserve" width="512px" height="512px"><g><g id="XMLID_1689_">
	<g id="XMLID_454_">
		<path id="XMLID_521_" d="M288.336,214.002c0-17.829-14.505-32.333-32.333-32.333s-32.333,14.505-32.333,32.333    s14.505,32.333,32.333,32.333S288.336,231.83,288.336,214.002z M243.669,214.002c0-6.801,5.533-12.333,12.333-12.333    s12.333,5.533,12.333,12.333s-5.533,12.333-12.333,12.333S243.669,220.802,243.669,214.002z" data-original="#000000" class="active-path" data-old_color="#000000" fill="#FFFFFF"/>
		<path id="XMLID_524_" d="M511.227,360.431l-16.436-39.251l8.935-13.615c7.392-11.264,9.577-25.173,5.995-38.161l-8.306-30.114    c-3.641-13.201-11.97-24.579-23.453-32.038c-1.851-1.203-4.037-1.74-6.212-1.573c-4.701-98.475-76.284-182.353-173.683-201.583    c-5.415-1.071-10.678,2.456-11.748,7.874c-1.07,5.418,2.455,10.678,7.874,11.748c91.441,18.054,157.81,98.921,157.81,192.284    c0,2.766-0.08,5.548-0.195,8.32l-20.879,11.153c0.71-6.453,1.074-12.969,1.074-19.473c0-10.857-0.995-21.485-2.886-31.804    c-0.041-0.283-0.096-0.561-0.161-0.838c-15.349-81.504-87.057-143.358-172.953-143.358c-85.932,0-157.665,61.907-172.973,143.462    c-0.052,0.233-0.1,0.466-0.135,0.703c-1.895,10.329-2.892,20.967-2.892,31.835c0,6.507,0.365,13.019,1.075,19.473l-20.89-11.158    c-0.115-2.761-0.185-5.547-0.185-8.315c0-93.483,66.47-174.37,158.051-192.331c5.419-1.063,8.951-6.318,7.888-11.738    c-1.063-5.418-6.311-8.951-11.738-7.888C116.653,23.177,44.958,107.079,40.255,205.68c-2.175-0.167-4.36,0.37-6.211,1.573    c-11.483,7.459-19.812,18.837-23.453,32.038l-8.306,30.114c-3.583,12.988-1.397,26.897,5.995,38.161l8.935,13.615L0.778,360.431    c-2.133,5.094,0.268,10.953,5.362,13.086c1.262,0.529,2.57,0.779,3.858,0.779c3.91,0,7.624-2.309,9.229-6.141l15.294-36.525    l43.494,9.175L40.273,499.69c-1.276,5.374,2.045,10.765,7.418,12.041c0.777,0.185,1.554,0.272,2.319,0.272    c4.526,0,8.629-3.095,9.721-7.69l34.497-145.222c40.772,46.018,99.655,72.91,161.774,72.91c34.396,0,68.624-8.287,98.983-23.966    c23.66-12.219,45.076-28.951,62.793-48.935l34.494,145.212c1.092,4.596,5.194,7.69,9.721,7.69c0.765,0,1.542-0.088,2.319-0.272    c5.374-1.276,8.695-6.667,7.418-12.041L433.99,340.806l43.494-9.175l15.294,36.525c1.605,3.833,5.318,6.141,9.229,6.141    c1.287,0,2.596-0.251,3.858-0.779C510.959,371.384,513.359,365.525,511.227,360.431z M468.725,237.96    c1.532-0.819,2.825-2.022,3.751-3.493l2.315-3.677c3.406,3.978,5.927,8.684,7.343,13.819l8.306,30.115    c2.053,7.443,0.801,15.415-3.435,21.87l-9.589,14.612l-52.199,11.012l-9.244-9.502c-6.987-7.183-10.835-16.656-10.835-26.677    V261.92c0-2.963,2.004-5.55,4.874-6.29l2.354-0.608c7.094,4.132,16.058,4.465,23.513,0.482L468.725,237.96z M125.676,254.129    h59.39c18.161,0,32.937,14.775,32.937,32.937v80.29c-37.935-9.432-71.137-32.874-93.004-66.654    c1.225-4.736,1.869-9.652,1.869-14.662V261.92C126.867,259.221,126.439,256.607,125.676,254.129z M185.066,234.129h-84.019    c-0.693-6.002-1.045-12.067-1.045-18.127c0-7.541,0.549-14.955,1.588-22.213l101.538-24.499c34.59-8.345,71.158-8.345,105.748,0    l101.538,24.498c1.039,7.258,1.589,14.673,1.589,22.214c0,6.059-0.358,12.126-1.051,18.127h-84.012    c-29.189,0-52.937,23.747-52.937,52.937v83.896c-5.928,0.677-11.932,1.04-18,1.04s-12.072-0.363-18-1.04v-83.896    C238.003,257.876,214.255,234.129,185.066,234.129z M294.003,287.065c0-18.161,14.775-32.937,32.937-32.937h59.39    c-0.763,2.479-1.191,5.092-1.191,7.791v24.119c0,5.01,0.644,9.926,1.869,14.662c-21.867,33.781-55.069,57.222-93.005,66.654    V287.065z M256.003,60.002c70.771,0,130.677,47.375,149.694,112.074l-92.13-22.229c-37.659-9.085-77.472-9.085-115.128,0    l-92.13,22.229C125.326,107.377,185.231,60.002,256.003,60.002z M21.565,274.723l8.306-30.115    c1.417-5.135,3.937-9.841,7.343-13.819l2.315,3.677c0.926,1.47,2.219,2.674,3.751,3.493l32.846,17.544    c7.455,3.982,16.419,3.65,23.513-0.482l2.355,0.608c2.87,0.74,4.874,3.327,4.874,6.29v24.119c0,10.021-3.848,19.494-10.835,26.677    l-9.244,9.502l-52.199-11.012L25,296.593C20.764,290.138,19.512,282.167,21.565,274.723z M256.003,412.002    c-60.6,0-117.808-28.207-154.851-75.866l9.216-9.474c1.66-1.707,3.19-3.508,4.614-5.374c14.59,19.497,33.151,35.914,54.362,47.935    c26.296,14.903,56.262,22.78,86.66,22.78c30.402,0,60.373-7.88,86.672-22.787c21.206-12.021,39.762-28.435,54.349-47.928    c1.424,1.867,2.953,3.668,4.614,5.375l9.224,9.482C373.86,383.729,316.348,412.002,256.003,412.002z" data-original="#000000" class="active-path" data-old_color="#000000" fill="#FFFFFF"/>
		<path id="XMLID_531_" d="M256.003,20.002h0.245c5.523,0,10-4.477,10-10s-4.477-10-10-10h-0.245c-5.523,0-10,4.477-10,10    S250.48,20.002,256.003,20.002z" data-original="#000000" class="active-path" data-old_color="#000000" fill="#FFFFFF"/>
	</g>
</g></g> </svg>
