<?xml version="1.0"?>
<svg xmlns="http://www.w3.org/2000/svg" height="512px" viewBox="0 0 512 512" width="512px"><g><path d="m481.226562 30.753906c-19.832031-19.832031-46.199218-30.753906-74.246093-30.753906s-54.417969 10.921875-74.246094 30.753906l-216.324219 216.324219-31.820312 116.671875-71.429688 71.429688c-17.546875 17.546874-17.546875 46.09375 0 63.640624 8.5 8.5 19.796875 13.179688 31.820313 13.179688 12.019531 0 23.316406-4.679688 31.816406-13.179688l71.433594-71.429687 116.671875-31.820313 216.324218-216.324218c19.832032-19.832032 30.753907-46.199219 30.753907-74.246094s-10.921875-54.414062-30.753907-74.246094zm-425.640624 446.851563c-2.832032 2.832031-6.601563 4.394531-10.605469 4.394531-4.007813 0-7.777344-1.5625-10.609375-4.394531-5.847656-5.847657-5.847656-15.363281 0-21.210938l33.519531-33.515625 21.210937 21.210938zm77.0625-77.0625-22.332032 22.335937-21.214844-21.214844 22.335938-22.335937 26.066406-95.578125 90.722656 90.726562zm327.363281-242.511719-202.902344 202.902344-106.0625-106.066406 202.898437-202.898438c14.167969-14.167969 33-21.96875 53.035157-21.96875 20.03125 0 38.867187 7.800781 53.03125 21.96875 14.167969 14.164062 21.96875 33 21.96875 53.03125s-7.800781 38.867188-21.96875 53.03125zm0 0" data-original="#000000" class="active-path" data-old_color="#000000" fill="#FFFFFF"/><path d="m235.898438 297.296875-21.214844-21.210937 21.214844-21.214844 21.214843 21.214844zm0 0" data-original="#000000" class="active-path" data-old_color="#000000" fill="#FFFFFF"/><path d="m235.898438 212.441406 63.640624 63.640625 149.867188-149.867187-63.640625-63.640625zm63.640624 21.214844-21.214843-21.214844 107.441406-107.441406 21.214844 21.214844zm0 0" data-original="#000000" class="active-path" data-old_color="#000000" fill="#FFFFFF"/></g> </svg>
