<?xml version="1.0"?>
<svg xmlns="http://www.w3.org/2000/svg" id="Capa_1" enable-background="new 0 0 512 512" height="512px" viewBox="0 0 512 512" width="512px"><g><g><path d="m409.544 199.743c-10.644-8.912-21.332-14.825-28.405-18.211-4.697-25.188-36.925-181.532-36.925-181.532h-176.247s-32.349 156.363-37.089 181.523c-7.073 3.385-17.77 9.301-28.422 18.219-24.492 20.508-37.438 47.121-37.438 76.963 0 61.516 43.228 83.435 83.682 83.435 35.894 0 46.333 5.346 56.429 10.516 10.89 5.577 22.151 11.344 50.871 11.344s39.981-5.767 50.872-11.344c10.096-5.17 20.535-10.516 56.429-10.516 40.454 0 83.682-21.918 83.682-83.435-.001-29.841-12.947-56.455-37.439-76.962zm-46.243 130.398c-19.34 0-32.878 1.478-43.081 3.69.921-3.04 1.724-5.991 2.479-8.767 6.099-22.428 9.081-27.671 24.404-27.671 12.331 0 20.503 13.824 20.584 13.964l-.06-.105 26.192-14.627c-6.063-10.857-22.725-29.231-46.717-29.231-17.488 0-30.932 5.988-39.957 17.797-7.285 9.532-10.392 20.955-13.396 32.002-5.902 21.705-9.465 34.807-37.749 34.807s-31.847-13.103-37.75-34.81c-3.004-11.046-6.11-22.469-13.396-32.001-9.025-11.81-22.469-17.797-39.957-17.797-23.991 0-40.654 18.374-46.717 29.231l26.192 14.628-.06.105c.081-.14 8.254-13.964 20.584-13.964 15.322 0 18.304 5.243 24.404 27.671.755 2.776 1.558 5.727 2.479 8.767-10.203-2.212-23.741-3.69-43.08-3.69-24.49 0-53.682-9.271-53.682-53.435 0-20.693 8.753-38.654 26.018-53.386 13.8-11.776 28.053-17.038 28.146-17.072l8.146-2.897 1.576-8.5c.176-.947 16.865-90.775 33.114-164.85h128.153c16.244 74.044 32.748 163.874 32.922 164.82l1.563 8.523 8.164 2.904c.542.192 54.164 19.851 54.164 70.458-.001 44.165-29.193 53.436-53.682 53.436z" data-original="#000000" class="active-path" data-old_color="#000000" fill="#48bb78"/><path d="m180.152 482h30v30h-30z" data-original="#000000" class="active-path" data-old_color="#000000" fill="#48bb78"/><path d="m301.848 482h30v30h-30z" data-original="#000000" class="active-path" data-old_color="#000000" fill="#48bb78"/><path d="m241 432.5h30v30h-30z" data-original="#000000" class="active-path" data-old_color="#000000" fill="#48bb78"/><path d="m154.5 401h30v30h-30z" data-original="#000000" class="active-path" data-old_color="#000000" fill="#48bb78"/><path d="m327.5 401h30v30h-30z" data-original="#000000" class="active-path" data-old_color="#000000" fill="#48bb78"/></g></g> </svg>
